{"title":"Armin van Buuren live at Ultra Europe 2014","uid":10595481,"size":3748732845,"categoryP":"video","categoryS":"hd___tv_shows","magnet":"?xt=urn:btih:063072d5d936537e32cef8019fe5f06b5b2e5c17&amp;dn=Armin+van+Buuren+live+at+Ultra+Europe+2014&amp;tr=udp%3A%2F%2Ftracker.openbittorrent.com%3A80&amp;tr=udp%3A%2F%2Fopen.demonii.com%3A1337&amp;tr=udp%3A%2F%2Ftracker.coppersurfer.tk%3A6969&amp;tr=udp%3A%2F%2Fexodus.desync.com%3A6969","seeders":4,"leechers":1,"uploader":"ct1481","files":1,"time":1405856828,"description":"[img]http://www.mixjunkies.com/wp-content/uploads/2014/02/Ultra-2014.jpg[/img]\n\nGeneral\nComplete name                  : DownloadsVideoArmin van Buuren live at Ultra Europe 2014.mp4\nFormat                         : MPEG-4\nFormat profile                 : Base Media\nCodec ID                       : isom\nFile size                      : 3.49 GiB\nDuration                       : 1h 58mn\nOverall bit rate mode          : Variable\nOverall bit rate               : 4 208 Kbps\nEncoded date                   : UTC 2014-07-16 18:11:57\nTagged date                    : UTC 2014-07-16 18:11:57\n\nVideo\nID                             : 1\nFormat                         : AVC\nFormat/Info                    : Advanced Video Codec\nFormat profile                 : &lt;a class=&quot;__cf_email__&quot; href=&quot;/cdn-cgi/l/email-protection&quot; data-cfemail=&quot;c088a9a7a8808cf4eef0&quot;&gt;[email&amp;#160;protected]&lt;/a&gt;&lt;script cf-hash='f9e31' type=&quot;text/javascript&quot;&gt;\n/* &lt;![CDATA[ */!function(){try{var t=&quot;currentScript&quot;in document?document.currentScript:function(){for(var t=document.getElementsByTagName(&quot;script&quot;),e=t.length;e--;)if(t[e].getAttribute(&quot;cf-hash&quot;))return t[e]}();if(t&amp;&amp;t.previousSibling){var e,r,n,i,c=t.previousSibling,a=c.getAttribute(&quot;data-cfemail&quot;);if(a){for(e=&quot;&quot;,r=parseInt(a.substr(0,2),16),n=2;a.length-n;n+=2)i=parseInt(a.substr(n,2),16)^r,e+=String.fromCharCode(i);e=document.createTextNode(e),c.parentNode.replaceChild(e,c)}}}catch(u){}}();/* ]]&gt; */&lt;/script&gt;\nFormat settings, CABAC         : Yes\nFormat settings, ReFrames      : 2 frames\nCodec ID                       : avc1\nCodec ID/Info                  : Advanced Video Coding\nDuration                       : 1h 58mn\nBit rate                       : 4 079 Kbps\nWidth                          : 1 920 pixels\nHeight                         : 1 080 pixels\nDisplay aspect ratio           : 16:9\nFrame rate mode                : Constant\nFrame rate                     : 25.000 fps\nColor space                    : YUV\nChroma subsampling             : 4:2:0\nBit depth                      : 8 bits\nScan type                      : Progressive\nBits/(Pixel*Frame)             : 0.079\nStream size                    : 3.38 GiB (97%)\nEncoded date                   : UTC 2014-07-16 18:11:57\nTagged date                    : UTC 2014-07-16 18:11:57\n\nAudio\nID                             : 2\nFormat                         : AAC\nFormat/Info                    : Advanced Audio Codec\nFormat profile                 : LC\nCodec ID                       : 40\nDuration                       : 1h 58mn\nBit rate mode                  : Variable\nBit rate                       : 126 Kbps\nChannel(s)                     : 2 channels\nChannel positions              : Front: L R\nSampling rate                  : 44.1 KHz\nCompression mode               : Lossy\nStream size                    : 107 MiB (3%)\nEncoded date                   : UTC 2014-07-16 18:11:12\nTagged date                    : UTC 2014-07-16 18:11:12\n\n\n\nTracklist:\n\n1. ID \n2. Andrew Rayel - Dark Warrior \n3. Paul Oakenfold - Toca Me \n4. Matisse &amp; Sadko - Sigure \n5. Armin van Buuren - Save My Night \n6. Armin van Buuren feat. Laura Jansen - Sound Of The Drums (Bobina Remix) \n7. Zombie Nation - Kernkraft 400 (W&amp;W Remix) vs. Martin Garrix &amp; Jay Hardway - Wizard (Acapella) (ID Mashup) \n8. Armin van Buuren feat. Lauren Evans - Alone (Thomas Newson Remix) \n9. Cosmic Gate &amp; Mark Sixma vs. Riva Starr &amp; Fatboy Slim vs. Fedde Le Grand &amp; Sultan &amp; Ned Shepard - Crushed vs. Eat Sleep Rave Repeat vs. No Good (Armin van Buuren Mashup) \n10. Alexander Popov - Quantum \n11. Armin van Buuren feat. Cindy Alma - Beautiful Life (ID Remix) \n12. Armin van Buuren &amp; W&amp;W - D# Fat vs. Tiesto - Adagio For Strings (Sandro Vanniel Mashup) \n13. Arno Cost &amp; Norman Doray - Apocalypse 2014 (Kryder &amp; Tom Staar Remix) \n14. Cosmic Gate &amp; Orjan Nilsen - Fair Game \n15. KhoMha - Asylum \n16. Faithless - Insomnia (Andrew Rayel Remix) \n17. John Legend - All Of Me (ID Remix) \n18. Cosmic Gate &amp; Eric Lumiere vs. Heatbeat - Falling Back Aerys (Armin van Buuren Mashup) \n19. MaRLo - Visions \n20. Coldplay - A Sky Full Of Stars (prod. by Avicii) (Paul Webster Bootleg) \n21. Armin van Buuren pres. Gaia - Empire Of Hearts \n22. Max Graham - The Evil ID (Mark Sherry Remix) \n23. Armin van Buuren - Precious (Mike Saint-Jules Bootleg) \n24. Lee Miller vs. Passenger - Atlantic Island vs. Let Her Go (Armin van Buuren Mashup) \n25. Gareth Emery &amp; Bryan Kearney &amp; Bo Bruce &amp; Christina Novelli - U vs. Concrete Angel (Armin van Buuren Mashup) \n26. Solarstone &amp; Scott Bond &amp; Heatbeat vs. Armin van Buuren feat. Sophie Ellis-Bextor - Not Giving Up On 3rd Earth (Armin van Buuren Mashup) \n27. Armin van Buuren &amp; Andrew Rayel - EIFORYA (Talla 2XLC 140 Remix) vs. Cosmic Gate - Exploration Of Space (Armin van Buuren Mashup) \n28. Ferry Corsten - Diss! vs. KhoMha - Dark Knight (Armin van Buuren Mashup) \n29. Sneijder &amp; Bryan Kearney - Next Level \n30. Photographer vs. Armin van Buuren &amp; Susana - Airport Shivers (Armin van Buuren Mashup) \n31. Armin van Buuren - Ping Pong \n32. Armin van Buuren feat. Trevor Guthrie - This Is What It Feels Like (John Ewbank Classical Remix w/ W&amp;W Remix)\n","torrent":{"xt":"urn:btih:063072d5d936537e32cef8019fe5f06b5b2e5c17","amp;dn":"Armin+van+Buuren+live+at+Ultra+Europe+2014","amp;tr":["udp%3A%2F%2Ftracker.openbittorrent.com%3A80","udp%3A%2F%2Fopen.demonii.com%3A1337","udp%3A%2F%2Ftracker.coppersurfer.tk%3A6969","udp%3A%2F%2Fexodus.desync.com%3A6969"],"infoHash":"063072d5d936537e32cef8019fe5f06b5b2e5c17","infoHashBuffer":{"type":"Buffer","data":[6,48,114,213,217,54,83,126,50,206,248,1,159,229,240,107,91,46,92,23]},"announce":[],"urlList":[]}}